<?xml version="1.0" encoding="iso-8859-1"?>
<!-- Generator: Adobe Illustrator 16.0.0, SVG Export Plug-In . SVG Version: 6.00 Build 0)  -->
<!DOCTYPE svg PUBLIC "-//W3C//DTD SVG 1.1//EN" "http://www.w3.org/Graphics/SVG/1.1/DTD/svg11.dtd">
<svg xmlns="http://www.w3.org/2000/svg" xmlns:xlink="http://www.w3.org/1999/xlink" version="1.1" id="Capa_1" x="0px" y="0px" width="512px" height="512px" viewBox="0 0 28.274 28.274" style="enable-background:new 0 0 28.274 28.274;" xml:space="preserve">
<g>
	<path d="M3.71,5.577L1.039,9.176C0.862,9.413,0.835,9.729,0.966,9.994l4.123,8.338c-1.729,1.575-2.966,3.316-3.479,5.023   c-0.072,0.238-0.027,0.497,0.121,0.696c0.149,0.201,0.383,0.317,0.632,0.317h21.929c0.216,0,0.421-0.087,0.568-0.241   c2.598-2.707,3.543-5.568,2.598-7.853c-0.756-1.812-2.569-3.03-5.112-3.506l1.846-4.669h1.855c0.436,0,0.786-0.352,0.786-0.787   c0-0.436-0.352-0.788-0.786-0.788h-7.086c-0.437,0-0.787,0.352-0.787,0.788c0,0.435,0.354,0.787,0.787,0.787h3.538l-1.771,4.482   c-0.312-0.019-0.615-0.042-0.939-0.042c-2.609,0-5.465,0.615-8.262,1.778c-1.933,0.804-3.69,1.83-5.188,2.98L2.595,9.725   l4.078-5.495l2.65,1.857c0.357,0.248,0.848,0.165,1.098-0.194c0.25-0.356,0.162-0.846-0.193-1.096L6.95,2.5   C6.601,2.257,6.12,2.332,5.866,2.677l-1.21,1.631L1.922,1.989c-0.33-0.279-0.826-0.24-1.107,0.091   c-0.281,0.332-0.241,0.829,0.091,1.11L3.71,5.577z M12.13,15.774c2.607-1.084,5.252-1.656,7.658-1.656   c3.17,0,5.494,1.034,6.218,2.766c0.67,1.617-0.078,3.761-2.054,5.915H3.518C4.828,20.138,8.07,17.465,12.13,15.774z M28.274,25.685   c0,0.436-0.353,0.787-0.787,0.787h-26.7C0.352,26.472,0,26.119,0,25.685c0-0.436,0.353-0.788,0.787-0.788h26.7   C27.922,24.897,28.274,25.249,28.274,25.685z M12.397,20.47c0-0.436,0.353-0.787,0.787-0.787h1.332l3.9-2.651   c0.355-0.241,0.848-0.152,1.094,0.208c0.244,0.359,0.15,0.851-0.209,1.094l-1.992,1.354c0.425,0.016,0.763,0.356,0.763,0.782   c0,0.437-0.354,0.788-0.787,0.788h-4.099C12.75,21.257,12.397,20.905,12.397,20.47z" fill="#75bf42"/>
</g>
<g>
</g>
<g>
</g>
<g>
</g>
<g>
</g>
<g>
</g>
<g>
</g>
<g>
</g>
<g>
</g>
<g>
</g>
<g>
</g>
<g>
</g>
<g>
</g>
<g>
</g>
<g>
</g>
<g>
</g>
</svg>
